<svg width="123" height="95" viewBox="0 0 123 95" fill="none" xmlns="http://www.w3.org/2000/svg">
<path d="M10.5001 56.5C1.70749 50.9589 0.589929 43.699 1.10113 40.5911C16.4372 20.6113 90.05 52.5789 122 50.9806C108.135 112.067 22.8876 104.983 10.5001 56.5Z" fill="#959595"/>
<path d="M69.2089 0.32418C29.1641 -3.09019 8.42662 21.3083 3.06348 33.9344C36.979 19.4233 96.9503 38.1523 122.063 49C121.553 34.4178 109.254 3.73855 69.2089 0.32418Z" fill="#959595"/>
<path d="M45.2516 9.73793C25.2905 14.2271 7.35629 25.3254 2.48771 33.4309C1.78623 34.5988 1.35346 35.6048 1.14656 36.4631C-0.802074 44.5463 15.5177 44.4735 21.9338 49.7621C48.3285 71.5185 100.665 70.261 122.236 48.7066C98.1974 12.5437 70.2031 4.12644 45.2516 9.73793Z" fill="white"/>
<mask id="mask0_5_36" style="mask-type:alpha" maskUnits="userSpaceOnUse" x="0" y="8" width="123" height="58">
<path d="M45.2516 9.73793C25.2905 14.2271 7.35629 25.3254 2.48771 33.4309C1.78623 34.5988 1.35346 35.6048 1.14656 36.4631C-0.802074 44.5463 15.5177 44.4735 21.9338 49.7621C48.3285 71.5185 100.665 70.261 122.236 48.7066C98.1974 12.5437 70.2031 4.12644 45.2516 9.73793Z" fill="white"/>
</mask>
<g mask="url(#mask0_5_36)">
<ellipse cx="61.6179" cy="31.2487" rx="26.4729" ry="27.1222" fill="#676767"/>
<ellipse cx="61.618" cy="31.2487" rx="10.7891" ry="11.0537" fill="black"/>
</g>
</svg>
